<svg version="1.2" xmlns="http://www.w3.org/2000/svg" viewBox="0 0 300 52" width="300" height="52"><defs><clipPath clipPathUnits="userSpaceOnUse" id="cp1"><path d="m-140-39h1920v5602h-1920z"/></clipPath></defs><style>tspan{white-space:pre}.a{fill:#fff}.b{font-size: 1px;fill: #ffffff;font-family: "Myanmar Text"}</style><g clip-path="url(#cp1)"><path fill-rule="evenodd" class="a" d="m299.3 19.1l-3.2 0.4c-0.7 0.1-1.5 0.2-2.1 0.3-0.2 0-0.5-0.1-0.6-0.4q0 0 0-0.1-0.2-1-0.5-2c-0.1-0.4 0-0.5 0.4-0.6 0.6-0.2 1.1-0.4 1.7-0.6-0.2-0.4-0.3-0.7-0.4-1.1l-3.1 1.3c0.4 1.5 0.7 3 1.1 4.6l6.8-0.4q0.1 0.5 0.1 1c0 2.7-0.5 5.4-1.5 8-0.1 0.4-0.3 0.5-0.8 0.3l-4.4-1.8c-0.2 0-0.4-0.1-0.3-0.5q0.3-1 0.7-2.1c0-0.4 0.2-0.5 0.6-0.4l1.7 0.3c0-0.3 0.2-0.6 0.3-1.1l-3.3-0.4q-0.4 1.5-0.9 3-0.1 0.5-0.4 1c-0.2 0.4-0.1 0.6 0.3 0.7l5.2 2.5 0.6 0.3c-1.6 2.8-3.8 5.4-6.4 7.3q-0.1-0.1-0.2-0.2c-1.1-1.2-2.1-2.5-3.1-3.8-0.2-0.3-0.2-0.4 0-0.7q0.9-0.7 1.7-1.5 0.1-0.1 0.2-0.1 0.2 0 0.3 0.1h0.1l1.4 1.2c0 0 0 0 0.1 0 0.7-0.7 0.7-0.7 0-1.4-0.8-0.6-1.3-0.9-1.9-1.3l-3.6 3.2 3.8 5.4c-2.9 1.8-6.1 3-9.4 3.4-0.2-1.1-0.3-2.2-0.5-3.2q-0.1-0.9-0.2-1.8c-0.1-0.3 0-0.5 0.3-0.6h0.1l2.2-0.5c0.3-0.1 0.5 0 0.6 0.3q0.2 0.7 0.4 1.3c0.2 0.5 0.5 0.2 0.9 0.2 0.3-0.1 0.4-0.3 0.2-0.6-0.4-0.9-0.7-1.8-1.1-2.6l-4.8 1.1c0 1 0.1 2 0.2 3.1 0.1 1.1 0.1 1.9 0.2 2.9 0 0.4-0.1 0.6-0.5 0.6-3.2 0.1-6.4-0.5-9.4-1.5q0.2-0.5 0.4-0.9 0.8-2 1.6-3.9c0.2-0.4 0.3-0.5 0.7-0.3q1.1 0.3 2.1 0.6c0.4 0.1 0.5 0.2 0.4 0.6-0.1 0.4-0.1 0.8-0.2 1.2-0.1 0.4 0.1 0.6 0.4 0.6 0.4 0 0.6 0.2 0.7-0.4 0.1-0.7 0.2-1.4 0.3-2.2 0.1-0.4 0-0.6-0.4-0.7q-1.9-0.5-3.7-1.1c-0.4-0.1-0.5-0.1-0.7 0.2q-1.3 2.5-2.5 5c-0.1 0.2-0.3 0.4-0.4 0.6-2.4-1.1-4.6-2.7-6.5-4.6q-0.5-0.6-1-1.2c-0.3-0.4-0.2-0.4 0-0.6l4.1-3 2.4 2.2-1.5 1.6c0.8 0.8 0.8 0.8 1.5 0 0.5-0.6 1-1.3 1.5-1.8l-3.4-3.5-3.6 2.3-1.7 1.2c-0.3 0.1-0.4 0.2-0.6-0.1-1.7-2.5-2.9-5.5-3.3-8.5q0-0.1 0-0.2l5.7-0.7q0.3 1.5 0.7 2.9l-2.2 0.7 0.5 1 3-1.1-1-4.7-6.3 0.5c-0.6 0-0.6 0-0.7-0.6-0.1-2.9 0.4-5.8 1.5-8.5 0-0.1 0.1-0.3 0.2-0.5l2.1 0.9q1.4 0.5 2.8 1.1c0.4 0.1 0.5 0.2 0.4 0.6q-0.4 1-0.7 2.1c-0.1 0.3-0.2 0.4-0.5 0.3-0.3 0-0.8-0.1-1.2-0.2-0.7-0.1-0.7-0.1-0.8 0.7q0 0.1 0 0.3l2.5 0.3c0.9 0.1 0.8 0.3 1.1-0.8q0.4-1.5 1-3c0.1-0.4 0-0.6-0.4-0.8-1.7-0.8-3.4-1.6-5.1-2.5l-0.6-0.2c0.5-0.8 0.8-1.5 1.3-2.2 1.3-1.8 2.9-3.5 4.7-4.9 0.3-0.3 0.5-0.3 0.8 0.1 1 1.3 2.1 2.6 3.2 3.9l-2.4 2.1-1.6-1.3h-0.1c-0.8 0.7-0.8 0.8 0.1 1.4l1.8 1.4 3.6-3.3-3.7-5.4c2.8-1.8 6-3 9.3-3.4 0.3 1.8 0.5 3.6 0.8 5.5l-3.2 0.6-0.7-2-1.1 0.4c0.5 1 0.9 2 1.3 3 0.7-0.2 1.4-0.4 2-0.6q1.1-0.2 2.2-0.3c0.4 0 0.5-0.2 0.5-0.6-0.1-1.8-0.2-3.7-0.3-5.5 0-0.7 0-0.7 0.7-0.7 2.9-0.1 5.9 0.4 8.7 1.5l0.5 0.2c-0.8 1.6-1.5 3.2-2.2 4.8-0.1 0.1-0.2 0.2-0.4 0.2-0.7-0.2-1.4-0.4-2.3-0.6-0.4-0.1-0.5-0.3-0.4-0.6 0.1-0.4 0.1-0.8 0.3-1.2 0.1-0.4 0-0.7-0.5-0.6-0.2 0-0.3 0-0.6 0q-0.2 1.4-0.4 2.9c0 0.1 0.2 0.3 0.4 0.4 1.3 0.4 2.6 0.7 3.9 1.1 0.3 0.2 0.4 0 0.6-0.2l2.5-5.2c0.3-0.6 0.3-0.6 0.9-0.3 2.7 1.3 5.1 3.2 7 5.5l0.2 0.3-4.5 3.3-2.3-2.1 1.5-1.6q-0.4-0.3-0.8-0.6-0.2-0.1-0.4 0.1c-0.6 0.7-1.2 1.5-1.8 2.2 1.2 1.1 2.4 2.2 3.6 3.4l1.9-1.2c1-0.7 2.1-1.3 3.1-2 0.4-0.3 0.6-0.2 0.8 0.2 1.6 2.4 2.6 5.1 3.2 7.9q0 0.3 0.1 0.6zm-9.3-3.2c1.6-0.8 3.2-1.5 4.8-2.3q0.3 0 0.5 0.2 0.5 1.4 1.1 2.8c0.1 0.3 0 0.5-0.4 0.5l-1.3 0.3q-0.2 0-0.3 0.2-0.1 0.1-0.1 0.2 0 0.1 0 0.2c0 0.2 0.2 0.4 0.2 0.6l3.3-0.7c-0.4-2.1-1.2-4.2-2.4-6l-0.2 0.1-5.3 3c-0.4 0.2-0.5 0.1-0.8-0.2q-0.8-1.2-1.9-2.3-1-0.9-2.1-1.8c1-1.5 2-2.8 3-4.3 0.2-0.3 0.4-0.2 0.6 0l2.3 1.7q0.3 0.2 0.5 0.3l-1.7 1.7 0.7 0.7 2.6-2.2-0.4-0.4q-2-1.9-4.3-3.4c-0.4-0.2-0.6-0.2-0.9 0.2q-1.4 2.4-2.8 4.8-0.2 0.2-0.4 0.5c-1.7-1-3.6-1.5-5.6-1.7-0.2-0.1-0.3-0.2-0.4-0.4 0-1.7 0.2-3.3 0.3-4.9q0.1-0.2 0.3-0.3 1.8 0 3.6 0.6-0.3 1.1-0.5 2c0.8 0.5 1 0.5 1.3-0.4 0.2-0.6 0.3-1.2 0.6-1.8 0.2-0.6 0-0.6-0.4-0.7q-2.5-0.7-5.1-0.8-0.5 0-1 0v6.6c-2.2 0-4.3 0.5-6.2 1.4-0.8-1.6-1.7-3.1-2.4-4.7q-0.1-0.2 0.1-0.4c1-0.4 2-0.7 3-1.1q0.4-0.2 0.5 0.3c0 0.2 0.2 0.8 0.2 1.1q0.1 0.3 0.3 0.5 0.3 0.1 0.5 0l0.5-0.1c-0.2-1.1-0.4-2.2-0.6-3.2-2.3 0.4-4.4 1.2-6.4 2.3l3.1 5.1c0.4 0.6 0.4 0.7-0.2 1-1.5 1-2.9 2.2-3.9 3.6l-0.2 0.2-4.5-2.9c-0.3-0.2-0.2-0.4 0-0.6q0.9-1.1 1.9-2.2c0.1-0.1 0.4-0.1 0.5 0q0.5 0.4 1 0.9c0.2 0.3 0.4 0.3 0.7 0.1l0.6-0.4-2.3-2.4q-0.1 0-0.2 0.1c-1.5 1.3-2.8 2.8-3.9 4.5-0.2 0.2-0.1 0.4 0.1 0.5l1.1 0.6 4.5 2.4c-0.9 1.7-1.5 3.6-1.7 5.6 0 0.1-0.3 0.2-0.4 0.2-1.7 0-3.4-0.1-5.1-0.2-0.1 0-0.3-0.2-0.3-0.3 0.1-1.2 0.3-2.3 0.5-3.5l2.3 0.6c0-0.2 0.1-0.3 0.1-0.4 0.2-0.4 0.1-0.7-0.4-0.8-0.5-0.1-1.3-0.4-2-0.7-0.7-0.2-0.7-0.2-0.9 0.4-0.3 1.5-0.6 2.8-0.8 4.3q0 0.8 0 1.6h6.9c0.1 2 0.6 4 1.4 5.9l-0.9 0.4q-2 1-4 1.9-0.2 0-0.4-0.1c-0.4-1.1-0.9-2.2-1.3-3.2 0.1-0.1 0.2-0.1 0.2-0.1l1.2-0.3c0.9-0.2 1-0.4 0.6-1.3l-3.3 0.7c0.4 2.1 1.2 4.2 2.4 6l6-3.3c1.1 1.8 2.6 3.3 4.4 4.4-1 1.5-2 2.9-2.9 4.3-0.3 0.3-0.5 0.3-0.7 0.1-0.8-0.6-1.5-1.2-2.3-1.8-0.3-0.3-0.3-0.4 0-0.7 0.3-0.2 0.9-0.8 1.3-1.2q-0.2-0.3-0.5-0.5c-0.1-0.1-0.3-0.2-0.4 0l-2.6 2c1.5 1.7 3.3 3.1 5.3 4.1l3.5-5.7c1.9 1 4 1.6 6.1 1.7-0.1 1.9-0.2 3.7-0.3 5.7l-3.9-0.6c0.2-0.8 0.4-1.5 0.6-2.1-1-0.6-1-0.5-1.4 0.4q-0.1 0.3-0.2 0.7-0.3 0.8-0.5 1.6c2.1 0.7 4.4 1.1 6.7 1.1v-6.7c2.1-0.1 4.2-0.5 6.1-1.4l2.6 4.9-0.4 0.3q-1.4 0.4-2.7 0.9c-0.4 0.2-0.6 0.1-0.7-0.3-0.1-0.5-0.3-1.1-0.5-1.6l-1 0.2 0.7 3.2c2.2-0.4 4.3-1.2 6.3-2.3l-3.5-5.7c1.8-1.1 3.4-2.5 4.6-4.2l5 3.2-2.7 2.9-1.4-1.7-0.9 0.8c0.6 0.7 1.3 1.4 1.9 2.1 0.2 0.3 0.4 0.3 0.7 0q1.6-1.9 3.3-3.7 0.3-0.5 0.6-1l-5.9-3.3c0.9-1.7 1.5-3.6 1.8-5.6 0-0.1 0.2-0.2 0.4-0.2 0.9 0 1.9 0.1 2.8 0.1l2.7 0.2-0.7 3.7-2.2-0.5c0 0.1-0.2 0.2-0.2 0.3-0.2 0.7-0.2 0.6 0.4 0.8 0.6 0.3 1.4 0.5 2.1 0.7 0.4 0.2 0.6 0 0.7-0.3 0.3-1.3 0.6-2.5 0.8-3.7 0.1-0.7 0.1-1.5 0.2-2.2h-6.9c-0.2-1.1-0.2-2.1-0.5-3-0.2-1-0.6-2-0.9-3z"/><path class="a" d="m3.9 14.7c2.3 0 4.5 1.1 5.8 2.9 0.8 1 1.5 2.1 2.1 3.2q1.9 2.9 3.7 5.7l2.9 4.7q0.4 0.7 0.9 1.2 0.1 0.3 0.4 0.3 0.3 0.1 0.5-0.1 0.2-0.1 0.3-0.3l4.5-7.1 5.3-8.3c0.9-1.4 1.8-2.8 2.8-4.2 1.1-1.4 2.6-2.5 4.3-2.9 1.8-0.6 3.8-0.4 5.4 0.5q0.7 0.4 1.2 1.2c0.1 0.1 0.1 0.4 0 0.6-0.1 0.2-0.3 0.3-0.5 0.3-2.1 0.1-3.9 1.2-4.9 3l-4.8 7.6c-1.6 2.5-3.1 4.9-4.6 7.3-1.6 2.4-3.1 4.9-4.7 7.4q-0.7 1.2-1.7 2.4c-1.6 1.6-4.3 1.6-6 0q-0.3-0.4-0.6-0.8-2.3-3.7-4.7-7.4c-1.3-2.1-2.7-4.2-4-6.4-1.4-2.1-2.9-4.4-4.3-6.5-0.5-0.8-1.4-1.4-2.4-1.5-0.3 0-0.7-0.3-0.8-0.5 0-0.3 0.1-0.6 0.3-0.9 1-0.9 2.3-1.5 3.6-1.4z"/><path class="a" d="m90.1 19.2v0.6q-0.5-0.1-1 0c-0.5-0.1-1 0.1-1.3 0.5-0.4 0.3-0.6 0.8-0.5 1.3v14.8q0 0.6 0 1.2c-0.1 0.9 0.7 1.7 1.6 1.7q0.6 0 1.2 0v0.4c-0.2 0-0.3 0-0.5 0h-9.8c-0.2 0-0.3-0.1-0.4-0.2 0.1-0.1 0.2-0.3 0.4-0.3 0.4 0 0.8 0 1.2-0.1 0.7-0.2 1.2-0.8 1.2-1.5q0-0.9 0-1.8v-14.6c-0.1 0.2-0.2 0.3-0.3 0.5q-3.7 8.8-7.3 17.6-0.1 0.2-0.2 0.4c0 0.1-0.2 0.2-0.3 0.2q-0.2 0-0.2-0.2-0.5-0.9-0.9-1.9-3.3-8-6.8-16-0.1-0.3-0.2-0.5v15.5c-0.1 1.3 0.8 2.4 2.1 2.5h0.2 0.6v0.5h-6.9v-0.5h0.5c0.6 0 1.2-0.2 1.6-0.6 0.5-0.5 0.7-1 0.7-1.6v-11.5q0-1.9 0-3.7c0-1.7-1-2-2-2.1h-0.8v-0.5h0.2 7.8c0.4 0 0.4 0.2 0.6 0.5l5.3 12.5c0 0.2 0.1 0.3 0.3 0.6 0.1-0.2 0.1-0.4 0.2-0.5q2.6-6.3 5.1-12.5c0.1-0.4 0.5-0.6 0.9-0.6q3.5 0 7.1 0z"/><path class="a" d="m150.6 19.8v-0.5h10.2v0.4q-0.6 0.1-1.1 0.2c-0.7 0.1-1.2 0.7-1.3 1.4q0 0.5 0 0.9v6.4q0 0.3 0 0.5l0.8-0.6q3.5-2.8 7.1-5.7 0.6-0.5 1-1.1c0.7-0.9 0.3-1.7-0.8-1.8q-0.3-0.1-0.7-0.1c-0.4 0-0.5-0.2-0.4-0.6h7.9c0.2 0.4 0 0.5-0.3 0.6q-0.9 0.1-1.6 0.6c-2.9 2.1-5.7 4.4-8.6 6.6q0.1 0.2 0.2 0.3 3.6 4.6 7.3 9.1 0.5 0.6 1.1 1.2c0.7 1 1.8 1.6 3 1.7 0 0 0 0.1 0 0.2v0.3h-10.7c-0.1-0.3-0.1-0.6 0.3-0.6q0.3 0 0.5-0.1c0.7-0.2 0.9-0.6 0.6-1.2q-0.4-0.8-1-1.6-2.4-3-4.8-6l-0.2-0.3c-0.5 0.3-0.9 0.8-0.8 1.4 0 1.7 0 3.5 0 5.3q0 0.4 0 0.8c0 0.9 0.6 1.6 1.5 1.7 0.2 0 0.5 0 0.8 0.1q0.2 0 0.2 0.2c0 0.1-0.1 0.2-0.2 0.3-0.1 0-0.2 0-0.2 0h-9.6-0.3v-0.5h0.2 0.3c1.7 0 2.3-0.5 2.3-2.2q0-7.5 0-15.1c0-1.8-0.9-2.2-2.3-2.2z"/><path class="a" d="m46.9 14.7c1.3 0 2.6 0.6 3.6 1.5 0.4 0.6 0.3 1.2-0.3 1.3-1.4 0.1-2.6 1-3.3 2.2q-2.4 3.8-4.8 7.7l-5 7.8q-1.3 2.2-2.8 4.4c-1 1.6-3 2.4-4.9 1.7-0.8-0.2-1.6-0.7-2.1-1.5-0.1-0.2-0.1-0.6 0-0.8 1.8-2.8 3.6-5.4 5.2-8.1 1.6-2.4 3.1-4.9 4.6-7.3 1.3-2 2.5-4 3.9-5.9 1.3-1.9 3.5-3 5.9-3z"/><path class="a" d="m25.5 1c1.9-0.1 3.7 1 4.5 2.7 0.2 0.4 0.6 0.7 1.1 0.7 1.8 0 3.4 0.9 4.5 2.2 0.6 0.8 0.3 1.3-0.6 1.6q-1.2 0.3-2.3 0.9c-0.9 0.5-1.7 1.3-2.2 2.2-1.5 2.2-2.8 4.4-4.2 6.5q-0.2 0.4-0.4 0.7-0.5 0.6-1 0c-0.5-0.7-0.9-1.4-1.4-2.1-0.9-1.3-1.7-2.7-2.6-4q-0.8-1.2-1.8-2.4c-0.8-0.9-2-1.6-3.4-1.8q-0.4-0.1-0.7-0.3c-0.3-0.2-0.3-0.7-0.1-0.9 0.6-1 1.5-1.8 2.5-2.2q1-0.3 2.1-0.4c0.5 0 1-0.3 1.2-0.8 0.9-1.7 2.8-2.8 4.8-2.6z"/><path class="a" d="m229.5 39.3v0.5h-7.2v-0.5l1-0.1c1.1-0.1 1.9-1 1.9-2q0.1-0.7 0.1-1.4v-13.5c0-0.4-0.1-0.8-0.4-1-0.5-0.9-1.4-1.4-2.4-1.5-0.1 0-0.2-0.3-0.3-0.4l0.1-0.2h6.7c0.3 0 0.7 0.2 0.9 0.5q4.7 5.9 9.4 11.8l0.4 0.5q0-0.3 0-0.5v-8.2q0-0.7-0.1-1.5c-0.1-1-1-1.9-2.1-1.9q-0.3 0-0.6 0-0.1-0.1-0.2-0.3c0-0.1 0.2-0.2 0.2-0.2h6.6c0.1 0.3 0 0.5-0.4 0.5q-0.4 0.1-0.7 0.2c-0.8 0.1-1.4 0.7-1.4 1.5q-0.2 1-0.2 2v16.7c-0.4 0.2-0.6 0-0.8-0.3l-13.2-16.3-0.4-0.5v12.9q0 0.4 0 0.8c-0.1 0.6 0.2 1.3 0.7 1.7 0.5 0.5 1.2 0.7 1.8 0.7z"/><path class="a" d="m122.2 30.2l0.3-0.4q1.9-3.2 3.7-6.4 0.6-0.9 1-2c0.2-0.4 0.1-1-0.4-1.2q-0.1-0.1-0.3-0.2-0.5-0.1-1.1-0.2c-0.3 0-0.5-0.1-0.3-0.6h6.1c0.2 0.4 0 0.6-0.3 0.6-0.7 0.1-1.3 0.5-1.7 1.1-0.5 0.7-1 1.4-1.4 2.2l-4.7 7.8q-0.2 0.4-0.3 0.9v4.8q0 0.5 0 1c0 0.9 0.8 1.6 1.6 1.6q0.6 0.1 1.3 0c0.3 0 0.5 0.1 0.4 0.6h-0.5-10.7l-0.3-0.3c0.1-0.1 0.2-0.2 0.3-0.2q0.6 0 1.3 0c0.4 0 0.9-0.2 1.2-0.5 0.4-0.4 0.5-0.8 0.5-1.3q0-2.6 0-5.2 0-0.2-0.1-0.4c-1.7-3.2-3.5-6.3-5.2-9.4-0.2-0.3-0.4-0.6-0.6-1-0.5-0.9-1.2-1.8-2.5-1.8q0-0.1 0-0.2v-0.3h9.8v0.5q-0.5 0-1.1 0.1c-0.8 0.1-1.1 0.6-0.7 1.3 0.3 0.8 0.8 1.8 1.2 2.6q1.6 3 3.2 5.9 0.1 0.3 0.3 0.6z"/><path fill-rule="evenodd" class="a" d="m113.3 39.3v0.5h-9.9q-0.1-0.5 0.4-0.5 0.6 0 1.1-0.1c0.6 0 1-0.5 0.9-1q0-0.2-0.1-0.4c-0.2-0.7-0.6-1.5-0.8-2.2-0.3-0.7-0.4-1.2-0.8-1.4-0.4-0.3-1.1-0.1-1.7-0.1h-5.1c-0.3-0.1-0.5 0.1-0.6 0.4-0.4 0.9-0.8 1.8-1.1 2.8-0.1 0.4 0 0.9 0.2 1.3 0.3 0.4 0.7 0.6 1.1 0.6q0.5 0.1 1 0.2c0.4 0 0.5 0.1 0.3 0.6h-6.7c-0.1-0.4 0-0.6 0.3-0.6 0.8-0.2 1.6-0.8 1.9-1.5q1-1.8 1.9-3.7c2.2-4.9 4.4-9.9 6.6-14.7q0.2-0.3 0.4-0.5 0.2 0.2 0.3 0.5l7.4 16.8c0.2 0.6 0.6 1.2 0.8 1.8 0.5 0.8 1.3 1.2 2.2 1.2zm-9.6-6.4l-3.1-7.1-3.2 7.1z"/><path fill-rule="evenodd" class="a" d="m182.6 39.3v0.5h-6.8c-0.1-0.3-0.1-0.5 0.3-0.6 0.9-0.1 1.7-0.7 2.1-1.5q1-2 1.9-4 3.2-7.2 6.5-14.4 0.1-0.3 0.3-0.5 0.2 0.2 0.4 0.5 3.7 8.4 7.3 16.8 0.5 1.1 1.2 2.1c0.3 0.6 0.8 1 1.4 1q0.6 0 0.4 0.6h-9.5c-0.3 0-0.5 0-0.4-0.5q0.8 0 1.5-0.1c0.8-0.2 1.1-0.7 0.8-1.4-0.4-1.2-1-2.4-1.5-3.6q-0.1-0.2-0.3-0.2h-6.7q-0.2 0-0.4 0.2-0.6 1.3-1.1 2.7c-0.4 1.3 0.1 2.1 1.5 2.3zm5.4-6.5l-3.1-7.1c-1.1 2.4-2.1 4.7-3.2 7.1z"/><path fill-rule="evenodd" class="a" d="m220.9 39.8h-9.9v-0.4q0.1-0.1 0.2 0c0.5 0 0.9-0.1 1.4-0.2 0.5 0 0.9-0.4 0.8-0.9q0-0.2-0.1-0.4c-0.3-0.9-0.8-1.8-1-2.7-0.1-0.4-0.3-0.8-0.7-1-0.3-0.2-0.7-0.3-1.2-0.2-1.8 0.1-3.7 0-5.5 0-0.3 0-0.5 0.1-0.6 0.4-0.4 0.9-0.8 1.8-1.1 2.8-0.2 1 0.3 1.8 1.4 2q0.4 0.1 0.9 0.1c0.4 0 0.4 0.2 0.3 0.6h-6.7q-0.2-0.5 0.3-0.6c0.8-0.2 1.5-0.7 1.9-1.5q0.7-1.1 1.2-2.3 3.7-8.1 7.3-16.2 0.1-0.2 0.4-0.5 0.2 0.3 0.3 0.6 3.7 8.3 7.4 16.7c0.3 0.7 0.7 1.5 1.1 2.1 0.3 0.6 0.8 0.9 1.5 1 0.4 0.1 0.5 0.3 0.4 0.6zm-15.9-6.9h6.3l-3.1-7.2c-1.1 2.5-2.1 4.8-3.2 7.2z"/><path fill-rule="evenodd" class="a" d="m139.3 39.8v-0.4q0.7-0.1 1.4-0.2c0.8-0.2 1.1-0.6 0.9-1.4-0.5-1.2-1-2.4-1.5-3.6q-0.2-0.2-0.4-0.2h-6.6q-0.3 0-0.5 0.2c-0.3 0.9-0.7 1.7-1 2.6q-0.2 0.6-0.1 1.2c0.1 0.6 0.5 1 1 1.1q0.6 0.1 1.2 0.2c0.4 0 0.5 0.1 0.4 0.5h-6.7c-0.1-0.2-0.1-0.5 0.3-0.5 0.8-0.2 1.5-0.7 1.9-1.5 0.7-1.4 1.5-2.8 2.1-4.2 2.1-4.7 4.3-9.5 6.4-14.3q0.1-0.2 0.3-0.4 0.2 0.2 0.4 0.4 3.6 8.4 7.3 16.7 0.4 0.9 0.9 1.7c0.3 1 1.2 1.6 2.2 1.7v0.5zm0.2-7.1l-3.1-7-3.1 7z"/><path class="a" d="m61.4 0.7h2.7c0.2 0 0.4 0.2 0.4 0.4l2.4 7.9c0 0.1 0 0.2 0.2 0.4 0.1-0.2 0.1-0.3 0.2-0.4 0.8-2.7 1.7-5.2 2.5-7.8 0.1-0.4 0.3-0.6 0.8-0.6q0.6 0 1.3 0 0.3-0.1 0.5 0.1 0.2 0.1 0.2 0.4c0.9 2.5 1.7 5.1 2.5 7.7l0.2 0.6q0.2-0.3 0.2-0.5 1.2-3.9 2.4-7.8c0-0.3 0.3-0.5 0.6-0.5h2.6l-0.7 2q-1.8 5.4-3.6 10.7 0 0.3-0.2 0.4-0.2 0.2-0.5 0.1-0.7 0-1.4 0-0.2 0-0.4-0.1-0.2-0.1-0.2-0.3-1.3-3.8-2.5-7.5-0.1-0.2-0.4-0.4l-0.2 0.6c-0.8 2.5-1.7 4.9-2.5 7.4-0.1 0.3-0.3 0.5-0.7 0.4q-0.7 0-1.4 0c-0.3 0.1-0.7-0.1-0.7-0.4-1.5-4.3-2.9-8.4-4.3-12.6q0-0.1 0-0.2z"/><path class="a" d="m11 9.5c2.4 0 4.8 1.2 6.3 3.1 1.2 1.6 2.2 3.2 3.3 4.9 0.9 1.2 1.7 2.5 2.5 3.8 0.4 0.4 0.4 1 0 1.5-0.9 1.3-1.8 2.6-2.5 4.1q-0.2 0.2-0.3 0.4-0.1 0.2-0.3 0.2-0.2 0.1-0.4 0-0.1-0.1-0.2-0.2c-0.3-0.4-0.5-0.8-0.8-1.2l-4.9-7.8c-0.8-1.2-1.5-2.4-2.3-3.5-0.9-1.3-2.4-2.2-4.1-2.3-0.2 0-0.7-0.2-0.7-0.4-0.1-0.3 0-0.6 0.2-0.9 0.7-0.7 1.6-1.3 2.6-1.4q0.8-0.2 1.6-0.3z"/><path class="a" d="m163.4 5.4l-3.6 5.5-3.5-5.4h-0.1v7.8c0 0.3-0.1 0.5-0.5 0.5q-0.9-0.1-1.7 0c-0.5 0-0.6-0.1-0.6-0.6v-12c0-0.4 0.1-0.5 0.5-0.5q1 0 2 0c0.4 0 0.7 0.1 0.9 0.4q1.4 2.4 2.8 4.7 0.1 0.2 0.3 0.3 0.1-0.1 0.2-0.3 1.5-2.4 3-4.7c0.1-0.3 0.4-0.4 0.7-0.4h2.2c0.3 0 0.4 0.1 0.4 0.4v12.2c0 0.4-0.1 0.5-0.5 0.5h-1.8c-0.4 0-0.5-0.1-0.5-0.5v-7.8z"/><path class="a" d="m98.7 5.7v7.5c0 0.5-0.1 0.6-0.5 0.6h-1.9c-0.2 0-0.4-0.2-0.4-0.3q0-6.3 0-12.6c0-0.2 0-0.2 0.1-0.2h2.4c0.1 0 0.3 0.2 0.4 0.3l5.4 7.2c0 0.1 0.2 0.2 0.3 0.4q0-0.2 0-0.4v-7c0-0.4 0.2-0.6 0.6-0.5h1.9c0.3 0 0.4 0 0.4 0.4v12.2c0 0.4-0.1 0.4-0.4 0.5-2 0-2 0-3.2-1.5l-4.8-6.5-0.2-0.2z"/><path class="a" d="m225.9 8.5v-7.4c0-0.3 0.1-0.5 0.5-0.5h1.9c0.3 0 0.4 0.2 0.4 0.5v12.3c0 0.3-0.1 0.4-0.4 0.4-1.9 0-1.9 0-3.1-1.5l-4.8-6.4-0.2-0.3-0.1 0.1q0 0.2 0 0.4v7.2c0 0.4-0.2 0.5-0.6 0.5q-0.9 0-1.9 0c-0.3 0-0.4-0.1-0.4-0.4v-12.3c0-0.3 0.1-0.4 0.4-0.4h2q0.3 0.1 0.6 0.4 2.7 3.6 5.4 7.2l0.3 0.3z"/><path fill-rule="evenodd" class="a" d="m197.4 9.1l3.1 4.7h-3.1c-0.2 0-0.4-0.2-0.4-0.4q-1.2-1.7-2.4-3.4c-0.1-0.3-0.4-0.5-0.6-0.4q-0.7 0-1.3 0c-0.4 0-0.5 0.1-0.5 0.5v3.2c0 0.4-0.2 0.5-0.5 0.5h-2c-0.3 0-0.4-0.1-0.4-0.4v-12.3c0-0.3 0.1-0.4 0.4-0.4 2 0 4 0 5.9 0 1.9-0.2 3.6 0.9 4.3 2.7 0.9 2.1-0.1 4.6-2.2 5.6q-0.1 0.1-0.3 0.1zm-5.2-4q0 0.8 0 1.5c0 0.2 0.1 0.3 0.3 0.4q1.4 0 3 0c0.4 0 0.9-0.2 1.3-0.5 0.3-0.4 0.5-0.8 0.5-1.3q0-0.2 0-0.5c-0.2-0.9-1-1.5-1.9-1.4-0.9 0-1.8 0-2.7 0-0.3 0-0.4 0.1-0.4 0.4 0 0.3-0.1 0.9-0.1 1.4z"/><path fill-rule="evenodd" class="a" d="m110.4 7.2v-6c0-0.4 0.2-0.5 0.6-0.5q2.4 0 4.8 0c2.6-0.1 5 1.4 6 3.8 1.2 2.4 0.7 5.2-1.1 7.1-1.3 1.5-3.2 2.2-5.1 2.2h-4.6c-0.5 0-0.6-0.2-0.6-0.6 0-2 0-4 0-6zm2.9 0v3.5c0 0.4 0.1 0.5 0.5 0.5h2c1.6 0 3-1.1 3.5-2.7 0.3-1.1 0.2-2.4-0.4-3.4-0.7-0.9-1.7-1.6-2.9-1.7-0.8-0.1-1.6 0-2.3 0-0.4 0-0.4 0.2-0.4 0.5q0 1.6 0 3.3z"/><path fill-rule="evenodd" class="a" d="m231.7 7.2v-5.9c0-0.4 0.1-0.6 0.6-0.6h4.9c2.6 0 5.1 1.6 6.1 4.1 1 2.5 0.4 5.3-1.5 7.1-1.3 1.3-3.1 1.9-4.9 1.9h-4.5c-0.4 0-0.6-0.1-0.6-0.6 0-2-0.1-4-0.1-6zm2.9 0v3.5c0 0.4 0.1 0.5 0.5 0.5h1.8c1.6 0 3-0.9 3.6-2.4 0.6-1.6 0.2-3.5-1.1-4.6q-0.8-0.6-1.7-0.8-1.4-0.1-2.8-0.1c-0.4 0-0.3 0.2-0.3 0.5q0 1.7 0 3.4z"/><path class="a" d="m186.2 2.3q-0.8 1-1.6 1.9c0 0-0.4 0-0.5 0-0.8-0.6-1.7-0.9-2.7-1-1-0.1-2 0.2-2.8 0.9-0.8 0.7-1.2 1.6-1.3 2.7-0.3 1.5 0.4 3 1.7 3.9 1.3 0.9 3 1 4.4 0.3 0.4-0.2 0.6-0.6 0.6-1 0-1.3 0-1.3-1.3-1.3q-0.6 0.1-1.3 0-0.2 0-0.3-0.3 0-0.9 0-1.8c0-0.1 0.2-0.3 0.3-0.3q2.6 0 5.2 0c0 0 0 0 0.1 0v5.3q0 0.3-0.2 0.5c-2.5 2.1-5.9 2.5-8.8 1.1-2.4-1.3-3.7-3.9-3.4-6.6 0.2-2.7 2-5.1 4.7-5.9 2.4-0.8 5-0.3 6.9 1.3l0.2 0.1q0 0.1 0.1 0.2z"/><path class="a" d="m124.8 7.3v-6.1c0-0.4 0.2-0.6 0.6-0.5q0.8 0 1.7 0c0.4 0 0.6 0.1 0.6 0.6q0 2 0 4.1c0 0.3 0.1 0.5 0.5 0.5h4.3c0.4 0 0.5-0.2 0.5-0.5v-4.3c0-0.3 0-0.5 0.4-0.4h2c0.4 0 0.5 0 0.5 0.4v12.2c0 0.4-0.2 0.4-0.5 0.4h-2c-0.3 0-0.4-0.1-0.4-0.4v-4.3c0-0.4-0.1-0.5-0.5-0.5h-4.3c-0.4 0-0.5 0.1-0.5 0.5v4.2c0 0.4-0.1 0.5-0.6 0.5-0.4 0-1.2 0-1.7 0-0.6 0-0.6-0.1-0.6-0.5 0-1.9 0-4 0-5.9z"/><path fill-rule="evenodd" class="a" d="m151.4 13.8h-2.8c-0.1 0-0.2-0.2-0.3-0.4-0.3-0.7-0.6-1.4-0.9-2.1 0-0.3-0.3-0.5-0.5-0.4h-4.7c-0.3-0.1-0.5 0.1-0.6 0.4-0.2 0.7-0.6 1.4-0.8 2.1-0.1 0.3-0.3 0.4-0.6 0.4-0.8 0-1.6 0-2.4 0 0-0.2 0-0.3 0.1-0.5q2.6-6.1 5.1-12.2c0.2-0.3 0.4-0.5 0.8-0.5q0.8 0.1 1.6 0 0.2 0 0.4 0.1 0.2 0.1 0.3 0.4 2.2 5.1 4.4 10.2 0.4 1 0.8 2.1 0.1 0.2 0.1 0.4zm-6.8-9.6h-0.1l-1.6 4h3.4z"/><path fill-rule="evenodd" class="a" d="m215.2 13.8h-2.7c-0.1 0-0.3-0.3-0.4-0.4-0.3-0.7-0.6-1.5-0.8-2.1-0.1-0.3-0.3-0.5-0.6-0.5h-4.6c-0.3 0-0.6 0.2-0.7 0.5-0.2 0.7-0.5 1.5-0.8 2.1 0 0.2-0.2 0.4-0.3 0.4-0.9 0-1.8 0-2.8 0 0.4-1 0.8-1.9 1.2-2.8l4.2-9.9c0.1-0.3 0.4-0.6 0.7-0.5q0.9 0 1.8 0c0.2 0 0.4 0.1 0.4 0.3q2.7 6.3 5.4 12.7c0.1 0.2 0.1 0.2 0 0.2zm-6.8-9.6h-0.1l-1.6 4h3.4z"/><path class="a" d="m94.2 0.7l-2.1 3.3q-1.3 2-2.6 4.1-0.3 0.5-0.3 1c0 1.5 0 2.8 0 4.2 0 0.4-0.1 0.5-0.5 0.5h-1.9c-0.3 0-0.4-0.1-0.4-0.5q0-2 0-4.1-0.1-0.5-0.4-1-2.2-3.5-4.4-7.1-0.1-0.1-0.2-0.3c0.2 0 0.4 0 0.5 0h2.3c0.3-0.1 0.6 0.1 0.8 0.4q1.2 2.2 2.5 4.4l0.3 0.4q0.1-0.1 0.2-0.3 1.4-2.2 2.7-4.4c0.1-0.4 0.3-0.6 0.7-0.6z"/><path class="a" d="m212.7 46.9l-2.2 3.2-2.3-3.3c0 0.2 0 0.4 0 0.5v4.1c0 0.2 0 0.5-0.3 0.5-0.4 0-0.4-0.3-0.4-0.5v-5.4q0-0.3 0.2-0.4c0.2 0 0.6 0 0.7 0.2q0.9 1.3 1.8 2.7l0.3 0.5 0.4-0.5q0.8-1.3 1.8-2.7c0.1-0.2 0.5-0.2 0.7-0.3q0.1 0.3 0.2 0.6v5.3c0 0.3 0 0.5-0.4 0.5-0.3 0-0.3-0.2-0.3-0.5v-4.4z"/><path fill-rule="evenodd" class="a" d="m68.4 51.9c-0.4 0.2-0.9 0-1.1-0.4-0.4-0.6-0.9-1.1-1.2-1.6-0.2-0.3-0.6-0.5-0.9-0.5-1.3 0-1.3 0-1.3 1.4v0.7c0 0.3 0 0.4-0.4 0.4-0.4 0-0.3-0.1-0.3-0.4v-5.5c0-0.3 0-0.5 0.4-0.4h2.5c1.1-0.1 2 0.6 2.1 1.6 0.2 0.8-0.3 1.7-1.1 2l-0.6 0.1zm-3.2-3h1.1c0.7-0.1 1.3-0.6 1.3-1.4 0-0.7-0.6-1.2-1.3-1.2q-0.5 0-1.1 0c-1.2 0-1.2 0-1.2 1.3 0 1.3-0.1 1.2 1.2 1.2z"/><path fill-rule="evenodd" class="a" d="m154.3 51.9c-0.5 0.1-0.8 0.1-1.1-0.3-0.2-0.4-0.8-1.1-1.2-1.7-0.2-0.3-0.5-0.5-0.9-0.5-1.3 0-1.3 0-1.3 1.3q0.1 0.4 0 0.9c0 0.1-0.2 0.2-0.3 0.3-0.1-0.1-0.3-0.2-0.3-0.4v-5.6c0-0.3 0.1-0.4 0.4-0.4h2.5c1.5 0 2.3 1.1 2 2.4-0.1 0.5-0.5 1-1.1 1.2-0.1 0-0.3 0.1-0.5 0.2zm-3.2-3.1q0.5 0 1.1 0c0.7 0 1.2-0.6 1.2-1.3 0-0.7-0.6-1.2-1.2-1.2q-0.6 0-1.1 0c-1.3 0-1.3 0-1.3 1.3 0 1.3 0 1.2 1.3 1.2z"/><path fill-rule="evenodd" class="a" d="m187.9 49.3l0.9 1.3 1 1.2c-0.5 0.1-0.9 0.1-1.2-0.3-0.2-0.4-0.8-1.1-1.2-1.7-0.1-0.3-0.5-0.5-0.9-0.4-1.2 0-1.2 0-1.2 1.2v0.8c0 0.3 0 0.5-0.4 0.5-0.4 0-0.3-0.2-0.3-0.4v-5.7c0-0.2 0.1-0.3 0.3-0.3h2.6c0.6-0.1 1.1 0.1 1.5 0.5 0.4 0.4 0.6 0.9 0.6 1.5 0 0.6-0.4 1.2-1 1.5-0.2 0.1-0.5 0.2-0.7 0.3zm-1.3-0.6q0.5 0.1 1.1 0c0.7 0 1.2-0.6 1.2-1.3 0-0.7-0.6-1.2-1.2-1.2q-0.9 0-1.7 0c-0.6 0-0.7 0-0.7 0.7v0.6c0 1.2 0 1.2 1.3 1.2z"/><path fill-rule="evenodd" class="a" d="m92.9 48.7v-2.8c0-0.1 0.2-0.4 0.3-0.4q1.4-0.1 2.8 0.1c1.5 0.2 2.6 1.7 2.5 3.2-0.1 1.6-1.3 2.9-2.9 3q-1.1 0-2.3 0c-0.3 0-0.4-0.2-0.4-0.5 0-0.8 0-1.7 0-2.6zm0.7 0v2.2c0 0.3 0.1 0.4 0.4 0.4h1.4c1.3-0.1 2.2-1.1 2.4-2.3 0.1-1.2-0.7-2.3-1.9-2.7q-1-0.1-2-0.1c-0.1 0-0.3 0.3-0.3 0.4q0 1.1 0 2.1z"/><path class="a" d="m111.1 46.8v4.5c0 0.3 0 0.6-0.4 0.6-0.3 0-0.3-0.3-0.3-0.5v-5.4c0-0.2 0.1-0.4 0.1-0.4q0.4 0 0.7 0.1c0.4 0.5 0.7 0.9 1 1.4l2.4 3c0 0.1 0.2 0.2 0.4 0.4q0-0.2 0-0.4v-4.1c0-0.3 0-0.5 0.3-0.5 0.4 0 0.3 0.3 0.3 0.5v5.3q0 0.3-0.1 0.5c-0.2 0-0.5-0.1-0.6-0.2-1-1.3-2-2.6-3-3.9l-0.8-0.9z"/><path class="a" d="m180.8 45.5c0.1 0.5 0 0.6-0.4 0.6h-3c-0.3 0-0.4 0.2-0.4 0.5 0 0.4 0 0.9 0 1.3 0 0.4 0.1 0.5 0.4 0.5h2.5c0.3 0 0.5 0 0.5 0.3 0 0.3-0.2 0.3-0.5 0.3h-2.5c-0.3 0-0.4 0.1-0.4 0.4v1.5c0 0.3 0.1 0.4 0.4 0.4h2.9c0.3 0 0.6-0.1 0.6 0.3 0 0.5-0.3 0.3-0.5 0.3h-3.7c-0.4 0-0.5-0.1-0.5-0.4v-5.5c0-0.2 0.2-0.4 0.3-0.4 1.5-0.1 2.9-0.1 4.3-0.1z"/><path class="a" d="m102.2 48.6v-2.6c0-0.3 0-0.5 0.4-0.4h3.7c0.2 0 0.4 0.1 0.4 0.2 0 0.3-0.1 0.4-0.4 0.4h-3c-0.3 0-0.5 0.1-0.4 0.4q0 0.7 0 1.3c0 0.4 0.1 0.5 0.4 0.5h2.6c0.3 0 0.5 0 0.4 0.3q-0.1 0.3-0.4 0.3h-2.6c-0.4 0-0.5 0.2-0.4 0.5q0 0.6 0 1.2c0 0.5 0.1 0.6 0.5 0.6h2.9c0.3 0 0.5 0 0.5 0.3 0 0.4-0.2 0.4-0.5 0.4h-3.7c-0.3 0-0.4-0.1-0.4-0.5 0-1 0-1.9 0-2.9z"/><path class="a" d="m128.5 48.7v-2.7c0-0.3 0.1-0.5 0.5-0.5h3.7c0.2 0 0.4 0.1 0.5 0.3 0 0.3-0.2 0.3-0.5 0.3h-3c-0.3 0-0.4 0.1-0.4 0.5 0 0.3 0 0.8 0 1.3 0 0.4 0.1 0.5 0.5 0.5h2.5c0.2 0 0.5 0 0.5 0.3 0 0.3-0.3 0.3-0.5 0.3h-2.5c-0.4 0-0.6 0.1-0.5 0.5q0 0.6 0 1.3c0 0.3 0.1 0.5 0.4 0.5h3c0.2 0 0.5-0.2 0.5 0.3 0 0.4-0.3 0.3-0.5 0.3h-3.7c-0.4 0-0.5-0.1-0.5-0.5q0.1-1.4 0-2.7z"/><path class="a" d="m72 48.7v-2.7c0-0.3 0-0.5 0.5-0.5h3.6c0.2 0 0.4 0.1 0.4 0.3 0 0.3-0.1 0.3-0.4 0.3h-2.9c-0.5 0-0.6 0.2-0.6 0.6q0.1 0.6 0 1.2c0 0.4 0.2 0.5 0.5 0.5h2.6c0.2 0 0.4 0 0.4 0.3 0 0.3-0.2 0.3-0.4 0.3h-2.6c-0.3 0-0.5 0.1-0.4 0.4v1.5c0 0.3 0.1 0.4 0.4 0.4h3c0.3 0 0.5 0 0.5 0.3 0 0.4-0.2 0.3-0.4 0.3h-3.8c-0.3 0-0.5-0.1-0.5-0.5z"/><path fill-rule="evenodd" class="a" d="m241.3 51.8c-0.4 0.2-0.8 0.1-0.9-0.4 0-0.5-0.3-0.9-0.7-1.1-0.3-0.2-0.8-0.3-1.2-0.1q-0.8 0-1.6 0-0.2-0.1-0.4 0-0.2 0.1-0.3 0.4c-0.1 0.2-0.3 0.5-0.3 0.8-0.1 0.3-0.5 0.5-0.9 0.3q0.5-1.1 0.9-2.2l1.8-3.8q0.2-0.2 0.5-0.3 0.2 0 0.4 0.3c1 2 1.8 4 2.7 6.1zm-1.7-2.3l-1.4-3.1h-0.1c-0.4 1-0.9 2-1.3 3.1z"/><path fill-rule="evenodd" class="a" d="m217 51.9l2.4-5.4q0.1-0.4 0.4-0.8c0.1-0.2 0.4-0.3 0.6-0.1q0.1 0 0.2 0.1 1.4 3.1 2.8 6.1c-0.5 0.2-0.8 0.2-0.9-0.3-0.1-0.5-0.3-0.9-0.7-1.2-0.4-0.2-0.9-0.3-1.4-0.1h-0.3c-1.2-0.2-2 0.1-2.3 1.5-0.1 0.3-0.4 0.2-0.8 0.2zm4.6-2.3l-1.5-3.1h-0.1q-0.7 1.5-1.4 3.1z"/><path fill-rule="evenodd" class="a" d="m199.2 51.8c-0.5 0.1-0.8 0.1-0.9-0.4-0.1-0.4-0.3-0.8-0.7-1.1-0.4-0.2-0.8-0.3-1.3-0.1q-0.8 0-1.7 0c-0.2-0.1-0.5 0.1-0.5 0.3-0.1 0.3-0.3 0.6-0.4 0.9-0.1 0.3-0.4 0.5-0.9 0.4q0.2-0.5 0.4-1 1.1-2.5 2.3-4.9 0.1-0.3 0.5-0.4c0.3-0.2 0.4 0.1 0.5 0.4q1.3 2.9 2.7 5.9zm-3.2-5.5l-1.5 3.2h2.9z"/><path class="a" d="m80.1 50.5c0.7 0.3 1.3 0.6 1.9 0.8q0.5 0.1 0.9 0c0.5-0.1 0.9-0.5 0.9-1 0.1-0.4-0.2-0.9-0.7-1-0.6-0.2-1.3-0.3-1.9-0.6-0.8-0.1-1.3-0.8-1.2-1.6 0-0.6 0.4-1.2 1-1.4 1.1-0.5 2.4-0.3 3.3 0.6l-0.4 0.4v-0.1q-1-0.3-2-0.5-0.3 0-0.6 0.2-0.4 0.3-0.5 0.9c0 0.3 0.2 0.6 0.5 0.8q0.7 0.3 1.4 0.5 0.6 0.1 1 0.4c0.5 0.2 0.8 0.8 0.8 1.4 0 0.5-0.3 1.1-0.8 1.4-1.3 0.6-2.8 0.3-3.8-0.8z"/><path class="a" d="m140.9 46.2l-0.4 0.5c-0.5-0.5-1.3-0.7-2-0.7-0.5 0-0.9 0.2-1.1 0.7-0.2 0.4 0 0.9 0.4 1.2h0.1q0.7 0.2 1.5 0.4 0.4 0.1 0.8 0.3c0.6 0.2 1 0.8 1 1.5 0 0.6-0.4 1.3-1 1.6-1.2 0.5-2.7 0.1-3.7-0.9l0.3-0.3q0.9 0.4 1.9 0.7 0.5 0.1 1.1-0.1c0.4-0.1 0.7-0.5 0.7-0.9 0-0.4-0.2-0.8-0.6-0.9-0.7-0.3-1.4-0.4-2-0.6-0.7-0.2-1.2-0.8-1.2-1.5-0.1-0.7 0.4-1.3 1-1.6 1.1-0.4 2.3-0.2 3.2 0.6z"/><path class="a" d="m124.7 50.4l0.4 0.4c-0.8 1-2.2 1.4-3.5 1-1.2-0.4-2.1-1.6-2.2-2.9-0.1-1.4 0.7-2.7 2-3.3 1.2-0.5 2.7-0.2 3.7 0.8l-0.5 0.5c-0.6-0.7-1.5-1-2.4-0.8-0.6 0.2-1.1 0.5-1.5 0.9-0.8 1-0.8 2.5 0.1 3.5 1 1.1 2.3 1.1 3.9-0.1z"/><path class="a" d="m162.1 45.6c0.5-0.2 0.8 0 0.9 0.4 0.6 1.4 1.3 2.9 1.9 4.4l0.2 0.5 0.2-0.5c0.7-1.5 1.3-3 1.9-4.5 0-0.2 0.2-0.4 0.3-0.4 0.2-0.1 0.4-0.1 0.6 0l-0.2 0.5c-0.8 1.8-1.4 3.6-2.3 5.4-0.1 0.2-0.3 0.4-0.5 0.4-0.2 0-0.4-0.2-0.5-0.4q-1.3-2.8-2.4-5.7-0.1 0-0.1-0.1z"/><path class="a" d="m229.2 48.6l1.1-1.6q0.4-0.5 0.7-1.1c0.2-0.4 0.7-0.5 1.1-0.4q-0.1 0.2-0.2 0.3c-0.7 1.1-1.4 2-2.1 3.1q-0.2 0.5-0.3 1 0 0.8 0 1.5c0 0.3 0 0.5-0.3 0.4-0.4-0.1-0.3-0.3-0.4-0.4-0.1-0.1 0-0.1 0-0.1 0.2-1.4-0.2-2.7-1.1-3.7q-0.8-1-1.5-2.1c0.5-0.1 0.8-0.1 1.1 0.3 0.5 0.9 1.1 1.7 1.6 2.5q0.1 0.2 0.3 0.3z"/><path class="a" d="m157.9 48.6v-2.6c0-0.3 0-0.5 0.4-0.4 0.4 0 0.3 0.1 0.3 0.4v5.5c0 0.3 0 0.4-0.3 0.4-0.4 0-0.4-0.1-0.4-0.4z"/><path class="a" d="m88.2 48.7v-2.8c0-0.3 0-0.4 0.4-0.4 0.3 0 0.3 0.2 0.3 0.4v5.5c0 0.3 0 0.5-0.3 0.5-0.4 0-0.4-0.2-0.4-0.5z"/><path class="a" d="m172.3 48.7v2.7c0 0.3 0 0.5-0.4 0.5-0.4 0-0.3-0.2-0.3-0.5v-5.5c0-0.2 0-0.4 0.3-0.4 0.4-0.1 0.4 0.1 0.4 0.4z"/><path fill-rule="evenodd" class="a" d="m247.7 2.2c0 0.8-0.7 1.5-1.5 1.5-0.4 0-0.8-0.2-1.1-0.5-0.3-0.3-0.4-0.7-0.4-1.1 0-0.9 0.7-1.5 1.5-1.5 0.8 0 1.5 0.6 1.5 1.5zm-0.2 0c0.1-0.5-0.1-1-0.6-1.3-0.4-0.3-0.9-0.3-1.3-0.1-0.5 0.2-0.7 0.7-0.7 1.2q0 0.1 0 0.2c0 0.3 0.1 0.7 0.4 0.9 0.2 0.3 0.5 0.4 0.9 0.4 0.7 0 1.3-0.6 1.3-1.4z"/><path class="a" d="m266.6 20.2c0.7-2.7 3.3-4.6 6.2-4.2 1.5 0.2 3 0.6 4.4 1.3q1.6 0.9 3.4 1.5c2.6 0.9 5.5 0.5 7.7-1.1-1.1 2.9-4.3 4.6-7.4 3.7q-2.1-0.6-4.1-1.6-1.8-1.1-3.9-1.5c-2.3-0.5-4.6 0.3-6.2 2l-0.1 0.1z"/><path class="a" d="m266.9 23.3c1-2.8 3.9-4.3 6.7-3.5q1.8 0.4 3.5 1.2c1.7 1 3.6 1.6 5.5 1.9 2.1 0.3 4.1-0.2 5.8-1.5-0.9 2-2.7 3.4-4.8 3.7-1.7 0.1-3.4-0.3-5-1-1-0.4-2-1-3-1.5q-1.6-0.7-3.3-1.1c-2-0.5-4.1 0.2-5.4 1.8z"/><path class="a" d="m267.2 25.2c1-1.2 2.5-1.9 4.1-2 2 0 4 0.5 5.7 1.6 1.6 0.9 3.3 1.4 5 1.6 2.4 0.4 4.7-0.5 6.3-2.2q0.1-0.1 0.3-0.2c-0.3 1.2-1 2.2-2 2.9q-1.1 0.7-2.4 1c-2.4 0.5-4.9 0.1-7-1.1q-1.1-0.6-2.2-1.2c-2.3-1.5-5.2-1.7-7.6-0.4 0 0-0.1 0-0.2 0z"/><text style="transform:matrix(1,0,0,1,245.473,1.016)" ><tspan x="0" y="0" class="b">R
</tspan></text></g></svg>