<svg version="1.2" xmlns="http://www.w3.org/2000/svg" viewBox="0 0 21 16" width="21" height="16"><defs><clipPath clipPathUnits="userSpaceOnUse" id="cp1"><path d="m-943-5465h1920v5602h-1920z"/></clipPath></defs><style>.a{fill:#fff}</style><g clip-path="url(#cp1)"><path class="a" d="m2.7 0.8c-1 0-1.8 0.8-1.8 1.8 0 0.6 0.3 1.1 0.7 1.4l8.2 6.2c0.4 0.3 1 0.3 1.4 0l8.2-6.2c0.4-0.3 0.7-0.8 0.7-1.4 0-1-0.8-1.8-1.8-1.8zm-1.8 4.2v7.8c0 1.3 1.1 2.4 2.4 2.4h14.4c1.3 0 2.4-1.1 2.4-2.4v-7.8l-8.2 6.1c-0.8 0.7-2 0.7-2.9 0z"/></g></svg>