<svg version="1.2" xmlns="http://www.w3.org/2000/svg" viewBox="0 0 18 19" width="18" height="19"><defs><clipPath clipPathUnits="userSpaceOnUse" id="cp1"><path d="m-592-5463h1920v5602h-1920z"/></clipPath></defs><style>.a{fill:#fff}</style><g clip-path="url(#cp1)"><path class="a" d="m5.8 1.9c-0.3-0.7-1-1-1.7-0.9l-3.1 0.9c-0.6 0.2-1 0.7-1 1.4 0 8.6 7.1 15.7 15.7 15.7 0.7 0 1.2-0.4 1.4-1l0.8-3.1c0.2-0.7-0.1-1.4-0.8-1.7l-3.3-1.4c-0.6-0.2-1.3-0.1-1.7 0.4l-1.4 1.7c-2.5-1.1-4.5-3.1-5.6-5.6l1.7-1.4c0.5-0.4 0.6-1.1 0.4-1.7 0 0-1.4-3.3-1.4-3.3z"/></g></svg>